# Alias OBJ Model File
# Exported from SketchUp, (c) 2000-2012 Trimble Navigation Limited
# File units = meters

mtllib The_Cube.mtl

g Mesh1 Group1 Model

usemtl Cube_Tex_01
v 0 0 -0
vt 1 0
vn 0 0 1
v -0.0707486 0.0707486 -0
vt 0.929251 0.0707486
v -1 0 -0
vt 0 0
f 1/1/1 2/2/1 3/3/1

v 0 1 -0
vt 1 1
f 2/2/1 1/1/1 4/4/1

vn 1 0 -0
v 0 0.0707486 -0.0707486
vt 0.0707486 0.0707486
vt 0 1
f 1/3/2 5/5/2 4/6/2

v 0 0 -1
f 5/5/2 1/3/2 6/1/2

vt -1 0
vn 0 -1 -0
v -0.0707486 0 -0.0707486
vt -0.929251 0.0707486
vt -1 1
f 1/7/3 7/8/3 6/9/3

v -0.929251 0 -0.0707486
vt -0.0707486 0.0707486
f 1/7/3 8/10/3 7/8/3

f 3/3/3 8/10/3 1/7/3

v -0.929251 0 -0.929251
vt -0.0707486 0.929251
f 8/10/3 3/3/3 9/11/3

v -1 0 -1
f 10/6/3 9/11/3 3/3/3

f 9/11/3 10/6/3 6/9/3

vn 0 0 -1
v -0.929251 0.0707486 -1
f 10/3/4 11/10/4 6/7/4

v -1 1 -1
f 11/10/4 10/3/4 12/6/4

vn -1 0 -0
v -1 0.0707486 -0.929251
f 10/7/5 13/8/5 12/9/5

v -1 0.0707486 -0.0707486
f 10/7/5 14/10/5 13/8/5

f 3/3/5 14/10/5 10/7/5

v -1 0.929251 -0.0707486
f 14/10/5 3/3/5 15/11/5

v -1 1 -0
f 16/6/5 15/11/5 3/3/5

f 15/11/5 16/6/5 12/9/5

vn 0 1 -0
v -0.929251 1 -0.0707486
f 16/3/6 17/5/6 12/6/6

f 17/5/6 16/3/6 4/1/6

v -0.929251 0.929251 -0
vt 0.0707486 0.929251
f 16/6/1 18/12/1 4/4/1

v -0.929251 0.0707486 -0
f 16/6/1 19/5/1 18/12/1

f 3/3/1 19/5/1 16/6/1

f 19/5/1 3/3/1 2/2/1

vt 0.0707486 0
vt 0.929251 0
v -0.0707486 0.0707486 -0.035
vt 0.929251 0.035
v -0.929251 0.0707486 -0.035
vt 0.0707486 0.035
f 19/13/6 2/14/6 20/15/6 21/16/6 

vt 0 0.0707486
v -0.0707486 0.929251 -0
vt 0 0.929251
v -0.0707486 0.929251 -0.035
vt -0.035 0.929251
vt -0.035 0.0707486
f 2/17/5 22/18/5 23/19/5 20/20/5 

vt 0.929251 0.929251
f 2/2/1 4/4/1 22/21/1

f 22/21/1 4/4/1 18/12/1

vt -0.929251 0
vt -0.0707486 0
v -0.929251 0.929251 -0.035
vt -0.0707486 0.035
vt -0.929251 0.035
f 22/22/3 18/23/3 24/24/3 23/25/3 

vt 0.035 0.0707486
vt 0.035 0.929251
f 18/18/2 19/17/2 21/26/2 24/27/2 

usemtl Cube_Tex_02
vt 0.0776016 0.929251
vn 0.272031 0 0.962289
vt 0.0776016 0.0707486
v -0.858503 0.141497 -0.055
vt 0.151123 0.141497
v -0.858503 0.858503 -0.055
vt 0.151123 0.858503
f 24/28/7 21/29/7 25/30/7 26/31/7 

vt 0.0707486 0.0776016
vn -3.45792e-19 0.272031 0.962289
vt 0.929251 0.0776016
v -0.141497 0.141497 -0.055
vt 0.858503 0.151123
vt 0.141497 0.151123
f 21/32/8 20/33/8 27/34/8 25/35/8 

vt 0.884687 0.0707486
vn -0.272031 0 0.962289
vt 0.884687 0.929251
v -0.141497 0.858503 -0.055
vt 0.811166 0.858503
vt 0.811166 0.141497
f 20/36/9 23/37/9 28/38/9 27/39/9 

vt 0.929251 0.884687
vn -3.45792e-19 -0.272031 0.962289
vt 0.0707486 0.884687
vt 0.141497 0.811166
vt 0.858503 0.811166
f 23/40/10 24/41/10 26/42/10 28/43/10 

vt -0.858503 0.055
vt -0.141497 0.055
v -0.858503 0.858503 -0.075
vt -0.141497 0.075
v -0.141497 0.858503 -0.075
vt -0.858503 0.075
f 28/44/3 26/45/3 29/46/3 30/47/3 

vt 0.055 0.858503
vt 0.055 0.141497
v -0.858503 0.141497 -0.075
vt 0.075 0.141497
vt 0.075 0.858503
f 26/48/2 25/49/2 31/50/2 29/51/2 

vt 0.141497 0.055
vt 0.858503 0.055
v -0.141497 0.141497 -0.075
vt 0.858503 0.075
vt 0.141497 0.075
f 25/52/6 27/53/6 32/54/6 31/55/6 

vt -0.055 0.141497
vt -0.055 0.858503
vt -0.075 0.858503
vt -0.075 0.141497
f 27/56/5 28/57/5 30/58/5 32/59/5 

usemtl Cube_Tex_01
vt -1 -1.94289e-16
vt -1 -1
vt -5.7821e-07 -0.999999
vt 0 -6.93889e-16
f 31/60/1 32/61/1 30/62/1 29/63/1 

v -0.0707486 1 -0.0707486
f 17/5/6 4/1/6 33/2/6

v -0.0707486 1 -0.929251
f 33/2/6 4/1/6 34/21/6

v 0 1 -1
f 35/4/6 34/21/6 4/1/6

v -0.929251 1 -0.929251
f 35/4/6 36/12/6 34/21/6

f 12/6/6 36/12/6 35/4/6

f 36/12/6 12/6/6 17/5/6

vt 0.929251 1
vt 0.0707486 1
v -0.929251 0.965 -0.0707486
vt 0.0707486 0.965
v -0.929251 0.965 -0.929251
vt 0.929251 0.965
f 36/64/2 17/65/2 37/66/2 38/67/2 

vt -0.0707486 1
vt -0.929251 1
v -0.0707486 0.965 -0.0707486
vt -0.929251 0.965
vt -0.0707486 0.965
f 17/68/4 33/69/4 39/70/4 37/71/4 

v -0.0707486 0.965 -0.929251
f 33/68/5 34/69/5 40/70/5 39/71/5 

f 34/64/1 36/65/1 38/66/1 40/67/1 

usemtl Cube_Tex_02
vt 0.929251 1.15672
vn 0 0.962289 0.272031
vt 0.0707486 1.15672
v -0.858503 0.945 -0.858503
vt 0.141497 1.0832
v -0.141497 0.945 -0.858503
vt 0.858503 1.0832
f 40/72/11 38/73/11 41/74/11 42/75/11 

vt 0.929251 0.194429
vn 0.272031 0.962289 -0
vt 0.0707486 0.194429
v -0.858503 0.945 -0.141497
vt 0.141497 0.120908
vt 0.858503 0.120908
f 38/76/12 37/77/12 43/78/12 41/79/12 

vt -0.0707486 0.194429
vn 0 0.962289 -0.272031
vt -0.929251 0.194429
v -0.141497 0.945 -0.141497
vt -0.858503 0.120908
vt -0.141497 0.120908
f 37/80/13 39/81/13 44/82/13 43/83/13 

vt -0.0707486 1.15672
vn -0.272031 0.962289 -0
vt -0.929251 1.15672
vt -0.858503 1.0832
vt -0.141497 1.0832
f 39/84/14 40/85/14 42/86/14 44/87/14 

vt -0.141497 0.945
vt -0.858503 0.945
v -0.141497 0.925 -0.858503
vt -0.858503 0.925
v -0.141497 0.925 -0.141497
vt -0.141497 0.925
f 44/88/5 42/89/5 45/90/5 46/91/5 

vt 0.858503 0.945
vt 0.141497 0.945
v -0.858503 0.925 -0.858503
vt 0.141497 0.925
vt 0.858503 0.925
f 42/92/1 41/93/1 47/94/1 45/95/1 

v -0.858503 0.925 -0.141497
f 41/92/2 43/93/2 48/94/2 47/95/2 

f 43/88/4 44/89/4 46/90/4 48/91/4 

usemtl Cube_Tex_01
vt 2.22044e-16 -2.77556e-17
vt 5.52402e-07 0.999999
vt -0.999999 1
vt -1 -2.77556e-17
f 46/96/6 45/97/6 47/98/6 48/99/6 

v -0.0707486 0.929251 -1
vt -0.929251 0.929251
f 35/9/4 49/100/4 12/6/4

v -0.0707486 0.0707486 -1
f 35/9/4 50/8/4 49/100/4

f 6/7/4 50/8/4 35/9/4

f 50/8/4 6/7/4 11/10/4

v -0.929251 0.0707486 -0.965
v -0.0707486 0.0707486 -0.965
f 50/64/6 11/65/6 51/66/6 52/67/6 

vt 1 0.0707486
v -0.929251 0.929251 -1
vt 1 0.929251
v -0.929251 0.929251 -0.965
vt 0.965 0.929251
vt 0.965 0.0707486
f 11/101/2 53/102/2 54/103/2 51/104/2 

f 11/10/4 12/6/4 53/11/4

f 53/11/4 12/6/4 49/100/4

v -0.0707486 0.929251 -0.965
f 53/68/3 49/69/3 55/70/3 54/71/3 

vt -1 0.929251
vt -1 0.0707486
vt -0.965 0.0707486
vt -0.965 0.929251
f 49/105/5 50/106/5 52/107/5 55/108/5 

usemtl Cube_Tex_02
vt -1.15672 0.929251
vn -0.272031 0 -0.962289
vt -1.15672 0.0707486
v -0.141497 0.141497 -0.945
vt -1.0832 0.141497
v -0.141497 0.858503 -0.945
vt -1.0832 0.858503
f 55/109/15 52/110/15 56/111/15 57/112/15 

vt -0.929251 -0.194429
vn 0 0.272031 -0.962289
vt -0.0707486 -0.194429
v -0.858503 0.141497 -0.945
vt -0.141497 -0.120908
vt -0.858503 -0.120908
f 52/113/16 51/114/16 58/115/16 56/116/16 

vt 0.194429 0.0707486
vn 0.272031 0 -0.962289
vt 0.194429 0.929251
v -0.858503 0.858503 -0.945
vt 0.120908 0.858503
vt 0.120908 0.141497
f 51/117/17 54/118/17 59/119/17 58/120/17 

vn 0 -0.272031 -0.962289
f 54/84/18 55/85/18 57/86/18 59/87/18 

v -0.141497 0.858503 -0.925
v -0.858503 0.858503 -0.925
f 59/88/3 57/89/3 60/90/3 61/91/3 

vt -0.945 0.858503
vt -0.945 0.141497
v -0.141497 0.141497 -0.925
vt -0.925 0.141497
vt -0.925 0.858503
f 57/121/5 56/122/5 62/123/5 60/124/5 

v -0.858503 0.141497 -0.925
f 56/92/6 58/93/6 63/94/6 62/95/6 

vt 0.945 0.141497
vt 0.945 0.858503
vt 0.925 0.858503
vt 0.925 0.141497
f 58/125/2 59/126/2 61/127/2 63/128/2 

usemtl Cube_Tex_01
vt -5.52401e-07 -0.999999
vt 0.999998 -0.999999
vt 0.999999 -4.44089e-16
f 62/3/4 63/129/4 61/130/4 60/131/4 

v 0 0.929251 -0.929251
f 35/4/2 64/21/2 6/1/2

v 0 0.929251 -0.0707486
f 35/4/2 65/12/2 64/21/2

f 4/6/2 65/12/2 35/4/2

f 65/12/2 4/6/2 5/5/2

v -0.035 0.0707486 -0.0707486
v -0.035 0.929251 -0.0707486
f 65/105/4 5/106/4 66/107/4 67/108/4 

v 0 0.0707486 -0.929251
v -0.035 0.0707486 -0.929251
f 5/101/6 68/102/6 69/103/6 66/104/6 

f 5/5/2 6/1/2 68/2/2

f 68/2/2 6/1/2 64/21/2

v -0.035 0.929251 -0.929251
f 68/101/1 64/102/1 70/103/1 69/104/1 

f 64/105/3 65/106/3 67/107/3 70/108/3 

usemtl Cube_Tex_02
vn 0.962289 -0.272031 -0
v -0.055 0.858503 -0.141497
v -0.055 0.858503 -0.858503
f 70/72/19 67/73/19 71/74/19 72/75/19 

vt -0.194429 0.929251
vn 0.962289 0 -0.272031
vt -0.194429 0.0707486
v -0.055 0.141497 -0.141497
vt -0.120908 0.141497
vt -0.120908 0.858503
f 67/132/20 66/133/20 73/134/20 71/135/20 

vt 0.0707486 -0.194429
vn 0.962289 0.272031 -0
vt 0.929251 -0.194429
v -0.055 0.141497 -0.858503
vt 0.858503 -0.120908
vt 0.141497 -0.120908
f 66/136/21 69/137/21 74/138/21 73/139/21 

vt 1.15672 0.0707486
vn 0.962289 0 0.272031
vt 1.15672 0.929251
vt 1.0832 0.858503
vt 1.0832 0.141497
f 69/140/22 70/141/22 72/142/22 74/143/22 

v -0.075 0.858503 -0.858503
v -0.075 0.141497 -0.858503
f 74/125/1 72/126/1 75/127/1 76/128/1 

v -0.075 0.858503 -0.141497
f 72/121/3 71/122/3 77/123/3 75/124/3 

v -0.075 0.141497 -0.141497
f 71/121/4 73/122/4 78/123/4 77/124/4 

f 73/125/6 74/126/6 76/127/6 78/128/6 

usemtl Cube_Tex_01
vt 0.999999 -3.60822e-16
vt -2.77556e-17 0
vt -5.67304e-07 -0.999999
f 75/130/2 77/144/2 78/145/2 76/146/2 

v -1 0.929251 -0.929251
f 15/11/5 12/9/5 79/100/5

f 79/100/5 12/9/5 13/8/5

v -0.965 0.0707486 -0.929251
v -0.965 0.929251 -0.929251
f 79/18/1 13/17/1 80/26/1 81/27/1 

v -0.965 0.0707486 -0.0707486
f 13/18/6 14/17/6 82/26/6 80/27/6 

v -0.965 0.929251 -0.0707486
f 14/17/4 15/18/4 83/19/4 82/20/4 

f 15/17/3 79/18/3 81/19/3 83/20/3 

usemtl Cube_Tex_02
vt -0.0707486 0.884687
vn -0.962289 -0.272031 -0
vt -0.929251 0.884687
v -0.945 0.858503 -0.858503
vt -0.858503 0.811166
v -0.945 0.858503 -0.141497
vt -0.141497 0.811166
f 83/147/23 81/148/23 84/149/23 85/150/23 

vt -0.884687 0.929251
vn -0.962289 0 0.272031
vt -0.884687 0.0707486
v -0.945 0.141497 -0.858503
vt -0.811166 0.141497
vt -0.811166 0.858503
f 81/151/24 80/152/24 86/153/24 84/154/24 

vt -0.929251 0.0776016
vn -0.962289 0.272031 -0
vt -0.0707486 0.0776016
v -0.945 0.141497 -0.141497
vt -0.141497 0.151123
vt -0.858503 0.151123
f 80/155/25 82/156/25 87/157/25 86/158/25 

vt -0.0776016 0.0707486
vn -0.962289 0 -0.272031
vt -0.0776016 0.929251
vt -0.151123 0.858503
vt -0.151123 0.141497
f 82/159/26 83/160/26 85/161/26 87/162/26 

v -0.925 0.858503 -0.141497
v -0.925 0.141497 -0.141497
f 87/56/4 85/57/4 88/58/4 89/59/4 

v -0.925 0.858503 -0.858503
f 85/56/3 84/57/3 90/58/3 88/59/3 

v -0.925 0.141497 -0.858503
f 84/48/1 86/49/1 91/50/1 90/51/1 

f 86/48/6 87/49/6 89/50/6 91/51/6 

usemtl Cube_Tex_01
vt 2.22044e-16 -6.66133e-16
vt -5.88358e-07 -0.999999
f 90/163/5 91/7/5 89/61/5 88/164/5 

v -0.0707486 0 -0.929251
f 9/11/3 6/9/3 92/100/3

f 92/100/3 6/9/3 7/8/3

v -0.0707486 0.035 -0.0707486
v -0.0707486 0.035 -0.929251
f 92/22/5 7/23/5 93/24/5 94/25/5 

v -0.929251 0.035 -0.0707486
f 7/22/4 8/23/4 95/24/4 93/25/4 

v -0.929251 0.035 -0.929251
f 8/13/2 9/14/2 96/15/2 95/16/2 

f 9/13/1 92/14/1 94/15/1 96/16/1 

usemtl Cube_Tex_02
vt 0.0707486 -0.884687
vn 0 -0.962289 0.272031
vt 0.929251 -0.884687
v -0.141497 0.055 -0.858503
vt 0.858503 -0.811166
v -0.858503 0.055 -0.858503
vt 0.141497 -0.811166
f 96/165/27 94/166/27 97/167/27 98/168/27 

vt -0.929251 -0.884687
vn -0.272031 -0.962289 -0
vt -0.0707486 -0.884687
v -0.141497 0.055 -0.141497
vt -0.141497 -0.811166
vt -0.858503 -0.811166
f 94/169/28 93/170/28 99/171/28 97/172/28 

vn 0 -0.962289 -0.272031
v -0.858503 0.055 -0.141497
f 93/155/29 95/156/29 100/157/29 99/158/29 

vn 0.272031 -0.962289 -0
f 95/32/30 96/33/30 98/34/30 100/35/30 

v -0.858503 0.075 -0.858503
v -0.858503 0.075 -0.141497
f 100/52/2 98/53/2 101/54/2 102/55/2 

v -0.141497 0.075 -0.858503
f 98/52/1 97/53/1 103/54/1 101/55/1 

v -0.141497 0.075 -0.141497
f 97/44/5 99/45/5 104/46/5 103/47/5 

f 99/44/4 100/45/4 102/46/4 104/47/4 

usemtl Cube_Tex_01
vt 0.394689 0.999999
vt 0.394689 -2.77556e-17
vt 1.39469 -2.77555e-17
vt 1.39469 0.999999
f 103/173/3 104/174/3 102/175/3 101/176/3 

