# Alias OBJ Model File
# Exported from SketchUp, (c) 2000-2012 Trimble Navigation Limited
# File units = meters

mtllib Platform_1_1.mtl

g Mesh1 Platform_4_1 Model

usemtl Level_Tex_01
v 0.5 0.5 -0.5
vt 0.500017 1.00025
vn 1 0 -0
v 0.5 0.5 0.5
vt 0.000219329 1.00025
v 0.5 0.2 0.5
vt 0.000219329 0.941608
v 0.5 0.2 -0.5
vt 0.500017 0.941608
f 1/1/1 2/2/1 3/3/1 4/4/1 

usemtl Level_Tex_01_1
vt 6.66133e-16 1.17549e-38
vn 0 1 -0
vt -0.00990106 1
v -0.5 0.5 -0.5
vt -1 1
v -0.5 0.5 0.5
vt -0.990099 -3.94426e-23
f 2/5/2 1/6/2 5/7/2 6/8/2 

usemtl Level_Tex_01
vt 2.78101 1.00025
vn 0 0 -1
vt 2.78101 0.941608
v -0.5 0.2 -0.5
vt 3.17181 0.941608
vt 3.17181 1.00025
f 1/9/3 4/10/3 7/11/3 5/12/3 

vt 0.666667 0.206819
vn 0 -1 -0
vt 0.666667 0
v -0.5 0.2 0.5
vt 1 0
vt 1 0.206819
f 4/13/4 3/14/4 8/15/4 7/16/4 

vt -0.781379 0.941608
vn 0 0 1
vt -0.781379 1.00025
vt -1.17218 1.00025
vt -1.17218 0.941608
f 3/17/5 2/18/5 6/19/5 8/20/5 

vn -1 0 -0
vt -0.499579 1.00025
vt -0.499579 0.941608
f 6/2/6 5/21/6 7/22/6 8/3/6 

