# Alias OBJ Model File
# Exported from SketchUp, (c) 2000-2012 Trimble Navigation Limited
# File units = meters

mtllib Base_Endcap_R_4_4.mtl

g Mesh1 Block_4_4_Endcap_R1 Model

usemtl Level_Tex_01
v 0 4 -0
vt 3.01905e-18 1
vn 1 -9.19504e-17 2.01351e-18
v -4.44089e-16 0 -0
vt 3.01905e-18 6.89628e-17
v -4.44089e-16 0 -4
vt 1.99919 6.89628e-17
v 0 4 -4
vt 1.99919 1
f 1/1/1 2/2/1 3/3/1 4/4/1 

vt -1.49939 0
vn 0 0 -1
v -3 0 -4
vt 0 0
v -3 4 -4
vt 0 1
vt -1.49939 1
f 3/5/2 5/6/2 6/7/2 4/8/2 

usemtl Level_Tex_01_1
vt 0 1.9903
vn 0 1 -0
v -3 4 -0
vt 0.996678 0
vt 0.996678 1.9903
f 6/9/3 7/6/3 1/10/3 4/11/3 

