# Alias OBJ Model File
# Exported from SketchUp, (c) 2000-2012 Trimble Navigation Limited
# File units = meters

mtllib Base_Endcap_R_2_2.mtl

g Mesh1 Block_4_4_Endcap_R_2_1 Model

usemtl Level_Tex_01_1
v -3 2 -2
vt 0 1.9903
vn 0 1 -0
v -3 2 -0
vt 0 0.995149
v 0 2 -0
vt 0.996678 0.995149
v 0 2 -2
vt 0.996678 1.9903
f 1/1/1 2/2/1 3/3/1 4/4/1 

usemtl Level_Tex_01
v -4.44089e-16 0 -0
vt 1.00024 0.501502
vn 1 -1.80478e-16 -0
v -4.44089e-16 0 -2
vt 1.99984 0.501502
vt 1.99984 1.0015
vt 1.00024 1.0015
f 5/5/2 6/6/2 4/7/2 3/8/2 

v -3 0 -2
vt 3.49923 0.501502
vn 0 0 -1
vt 3.49923 1.0015
f 7/9/3 1/10/3 4/7/3 6/6/3 

