# Alias OBJ Model File
# Exported from SketchUp, (c) 2000-2012 Trimble Navigation Limited
# File units = meters

mtllib Base_Endcap_R_2_2.mtl

g Mesh1 Block_4_4_Endcap_R_2_1 Model

usemtl FrontColor
v -3 2 -2
vt 0 157.48
vn 0 1 -0
v -3 2 -0
vt 0 78.7402
v 0 2 -0
vt 118.11 78.7402
v 0 2 -2
vt 118.11 157.48
f 1/1/1 2/2/1 3/3/1 4/4/1 

v -4.44089e-16 0 -0
vt 78.7402 2.13163e-14
vn 1 -1.80478e-16 -0
v -4.44089e-16 0 -2
vt 157.48 2.13163e-14
vt 157.48 78.7402
vt 78.7402 78.7402
f 5/5/2 6/6/2 4/7/2 3/8/2 

v -3 0 -2
vt 0 0
vn 0 0 -1
vt -118.11 78.7402
vt -118.11 0
f 7/9/3 1/2/3 4/10/3 6/11/3 

