# Alias OBJ Model File
# Exported from SketchUp, (c) 2000-2012 Trimble Navigation Limited
# File units = meters

mtllib Endcap_2_4.mtl

g Mesh1 Component_1_1 Model

usemtl FrontColor
v -3 0 -0
vt 0 0
vn 0 0 1
v 4.44089e-16 0 -0
vt 118.11 0
v 8.88178e-16 4 -0
vt 118.11 157.48
v -3 4 -0
vt 0 157.48
f 1/1/1 2/2/1 3/3/1 4/4/1 

v 4.44089e-16 0 -2
vt 78.7402 1.06581e-14
vn 1 -9.02389e-17 -0
v 8.88178e-16 4 -2
vt 78.7402 157.48
vt 0 1.06581e-14
f 5/5/2 6/6/2 3/4/2 2/7/2 

v -3 4 -2
vt 0 78.7402
vn 0 1 -0
vt 118.11 78.7402
f 7/8/3 4/1/3 3/2/3 6/9/3 

