# Alias OBJ Model File
# Exported from SketchUp, (c) 2000-2012 Trimble Navigation Limited
# File units = meters

mtllib Floating_Mid_2.mtl

g Mesh1 Block_4_2_2_1 Model

usemtl Level_Tex_01_1
v -3 2 -2
vt 0 0.995149
vn 0 1 -0
v -3 2 -0
vt 0 0
v -8.88178e-16 2 -0
vt 0.996678 0
v -8.88178e-16 2 -2
vt 0.996678 0.995149
f 1/1/1 2/2/1 3/3/1 4/4/1 

usemtl Level_Tex_01
v -8.88178e-16 0 -0
vt 0.998214 0.502265
vn 1 0 -0
v -8.88178e-16 0 -2
vt 1.99781 0.502265
vt 1.99781 1.00226
vt 0.998214 1.00226
f 5/5/2 6/6/2 4/7/2 3/8/2 

v -3 0 -2
vt 1.99922 0.0188818
vn 0 -1 -0
vt 1.99922 0.768882
vt 0.999623 0.768882
v -3 0 -0
vt 0.999623 0.0188818
f 7/9/3 6/10/3 5/11/3 8/12/3 

