# Alias OBJ Model File
# Exported from SketchUp, (c) 2000-2012 Trimble Navigation Limited
# File units = meters

mtllib Floating_Endcap_L_2.mtl

g Mesh1 Block_4_4_Endcap_L_5_1 Model

usemtl FrontColor
v -3 2 -2
vt 0 78.7402
vn 0 1 -0
v -3 2 -0
vt 0 0
v 0 2 -0
vt 118.11 0
v 0 2 -2
vt 118.11 78.7402
f 1/1/1 2/2/1 3/3/1 4/4/1 

v 0 0 -0
vn 0 0 1
v -3 0 -0
f 5/3/2 3/4/2 2/1/2 6/2/2 

vn 1 0 -0
v 0 0 -2
vt 78.7402 0
vt 78.7402 78.7402
f 5/2/3 7/5/3 4/6/3 3/1/3 

vn 0 -1 -0
v -3 0 -2
vt -118.11 78.7402
vt -118.11 0
f 6/2/4 8/1/4 7/7/4 5/8/4 

