# Alias OBJ Model File
# Exported from SketchUp, (c) 2000-2012 Trimble Navigation Limited
# File units = meters

mtllib Floating_Endcap_L_4.mtl

g Mesh1 Block_4_4_Endcap_L_4_1 Model

usemtl Level_Tex_01_1
v -3 2 -4
vt 0 1.9903
vn 0 1 -0
v -3 2 -0
vt 0 0
v 0 2 -0
vt 0.996678 0
v 0 2 -4
vt 0.996678 1.9903
f 1/1/1 2/2/1 3/3/1 4/4/1 

usemtl Level_Tex_01
v 0 0 -0
vt 0.00183673 0.495341
vn 0 0 1
vt 0.00183673 0.995341
vt -1.49756 0.995341
v -3 0 -0
vt -1.49756 0.495341
f 5/5/2 3/6/2 2/7/2 6/8/2 

vn 1 0 -0
v 0 0 -4
vt 2.00103 0.495341
vt 2.00103 0.995341
f 5/5/3 7/9/3 4/10/3 3/6/3 

vt -0.0529035 0.00649238
vn 0 -1 -0
v -3 0 -4
vt 1.94629 0.00649238
vt 1.94629 0.756492
vt -0.0529035 0.756492
f 6/11/4 8/12/4 7/13/4 5/14/4 

