# Alias OBJ Model File
# Exported from SketchUp, (c) 2000-2012 Trimble Navigation Limited
# File units = meters

mtllib Platform_4.mtl

g Mesh1 Platform_4_1 Model

usemtl FrontColor
v 0 0.3 -4
vt 157.48 11.811
vn 1 0 -0
v 0 0.3 -0
vt 0 11.811
v 0 0 -0
vt 0 0
v 0 0 -4
vt 157.48 0
f 1/1/1 2/2/1 3/3/1 4/4/1 

vn 0 1 -0
vt 0 157.48
v -3 0.3 -4
vt -118.11 157.48
v -3 0.3 -0
vt -118.11 0
f 2/3/2 1/5/2 5/6/2 6/7/2 

vn 0 0 -1
v -3 0 -4
vt 118.11 0
vt 118.11 11.811
f 1/2/3 4/3/3 7/8/3 5/9/3 

vn 0 -1 -0
v -3 0 -0
vt 118.11 157.48
f 4/5/4 3/3/4 8/8/4 7/10/4 

vn 0 0 1
vt -118.11 11.811
f 3/3/5 2/2/5 6/11/5 8/7/5 

vn -1 0 -0
vt -157.48 11.811
vt -157.48 0
f 6/2/6 5/12/6 7/13/6 8/3/6 

